<svg width="121" height="137" viewBox="0 0 121 137" fill="none" xmlns="http://www.w3.org/2000/svg">
<path d="M69.2354 26.52C71.3556 26.269 74.7266 26.9815 76.7731 27.5452C76.7383 28.8287 76.4888 29.7318 76.102 30.9463C75.9928 31.289 75.9164 31.6103 76.0948 31.9356C76.6445 32.4912 78.825 32.9194 79.7019 33.1656C81.3789 31.9487 81.2466 29.2951 82.3725 29.0238C83.9885 28.6343 89.9791 30.8752 90.9888 32.3655C91.377 32.9382 90.4913 35.1745 90.265 35.7466C91.2255 37.1277 92.344 37.3226 93.9082 38.0034C94.4648 36.4683 94.3022 35.6246 95.6594 34.5985C97.8426 35.5644 101.517 38.1009 102.4 40.5163C102.517 40.8345 102.225 42.2713 102.066 42.6029C100.084 46.7498 98.2649 51.131 95.6831 54.9443C93.9423 57.4561 90.4916 57.6285 87.8074 58.0255C86.6868 59.9465 85.8997 63.0292 85.065 65.1213C81.6469 73.6918 79.6596 82.5905 81.0253 91.8375C81.5675 95.5083 82.0362 100.621 83.3189 104.065C88.0089 116.658 82.155 121.066 68.981 119.334C67.4731 118.966 64.9342 118.866 63.3293 118.514C61.2666 118.06 58.5307 117.571 56.5287 116.964C52.2186 115.511 47.5188 114.014 43.4353 111.993C39.9182 110.253 35.6747 108.129 32.2871 106.194C29.6151 104.667 25.8993 100.849 26.5021 97.4779C27.2623 93.2251 32.949 90.2882 36.2205 87.8348C39.5805 85.3394 42.7432 82.5888 45.6807 79.6076C51.4601 73.6345 63.2176 58.2527 64.3781 50.1255C63.1193 47.8589 59.5703 45.6969 59.3349 42.7989C59.2191 39.8008 60.5396 36.5628 61.5678 33.7791C63.4323 28.7311 63.5226 27.0134 69.2354 26.52ZM32.1229 93.1777C33.5303 95.2852 38.4487 97.4278 40.5099 98.7952C44.7289 101.594 48.5635 104.46 53.4411 106.008C54.5926 106.373 55.7013 107.024 56.9271 107.339C57.8706 107.702 59.6708 108.464 60.5857 108.684C62.4965 109.143 64.8968 109.396 66.8811 109.653C68.2426 109.829 70.8893 110.239 72.1862 110.237C75.4128 110.546 80.1586 110.804 83.1869 110.149C82.9286 108.7 82.1884 107.157 81.8795 105.717C81.3033 103.029 80.7427 100.335 80.1235 97.6555C79.7938 96.2287 79.7432 94.5349 79.5119 93.0729C78.1809 84.6616 79.5868 76.2083 82.3573 68.2344C82.9757 66.4412 83.4444 64.6803 84.2901 62.9188C79.8711 62.6761 73.4638 60.7121 69.4304 58.8366C67.7114 58.0373 65.7419 56.7743 64.0442 55.8473C61.5766 62.8471 52.7404 74.75 47.5712 80.3864C44.7115 83.5045 40.0542 87.468 36.6246 89.9804C35.4615 90.8325 33.3685 92.5085 32.1229 93.1777ZM84.5135 56.4177C85.0268 56.1582 85.1168 56.0074 85.6247 56.049C85.8594 56.2573 86.024 56.4117 86.2436 56.6416C88.243 56.8162 89.2963 57.1278 90.8842 55.9898C91.0161 55.8953 91.4219 56.2436 91.5467 56.3572C93.0399 56.6003 92.4909 55.018 92.9208 55.0126C94.5982 54.9914 95.8861 52.2929 96.2205 50.8201C97.1214 49.9377 97.4424 49.5865 97.4765 48.2551C97.5003 47.3212 97.78 47.3495 98.5667 47.1017C98.7684 46.5835 99.0949 45.9009 99.0708 45.3675C98.7614 44.8609 98.3526 45.009 97.7752 45.0372L97.6345 45.1356C97.6349 45.5359 97.688 45.9451 97.4723 46.2657C97.0558 46.4859 97.2292 46.4653 96.8145 46.386C96.3787 45.8851 96.4576 45.7622 96.6667 45.1562C96.6837 45.166 94.8947 45.1053 94.8069 45.1159C94.1583 45.1935 92.0574 44.5562 91.6557 44.9279C91.7629 45.5864 92.0171 45.4067 91.8716 45.922C91.6062 46.1448 90.979 46.4925 90.9034 46.5965C89.8236 48.0819 89.954 48.7872 87.6938 48.6217C85.9655 48.495 84.1042 47.8314 82.719 46.7202C83.3181 46.1533 84.8217 44.0841 84.2178 43.2069C84.0223 42.923 82.6053 42.3156 82.2301 42.3149C81.8779 42.302 81.9164 42.8262 81.3123 42.7229C81.0876 42.4626 81.0234 41.9629 81.014 41.9541C80.57 41.5434 79.3062 41.0616 78.8038 40.7789C78.7227 40.932 78.65 41.2118 78.5963 41.3866C78.2634 41.6775 78.4219 41.6073 78.0012 41.6695L77.7974 41.4525C77.6735 41.0518 77.7783 40.823 77.8941 40.4178C77.3938 40.252 76.9771 40.1273 76.4666 39.9968C75.9353 41.2759 76.0016 41.0655 76.598 42.3078C76.3896 42.7182 75.9921 42.769 75.5613 42.8859L74.9099 44.0114C73.2896 43.8357 68.3092 42.1966 68.3786 40.0079C68.3939 39.5221 69.0496 38.4151 68.9534 37.96C68.5455 38.058 68.1138 38.2127 67.7292 38.0857C67.5586 37.8335 67.6079 37.9286 67.6811 37.5262C68.4427 36.7491 69.4035 38.5915 69.9537 35.5814C69.2353 35.1065 67.5994 33.7011 66.937 33.6641C66.6147 33.8072 66.4048 33.9099 66.0563 33.995C65.73 33.8189 65.8384 33.9264 65.6652 33.5595C65.7354 32.8143 66.181 32.6728 65.8005 32.2395C64.9422 31.2621 64.9636 31.5947 64.5895 30.3866C63.3747 33.0947 59.8901 40.5528 60.8433 43.5619C60.9562 43.9184 62.8402 46.6763 63.4664 46.8537C64.1256 47.0404 64.4235 46.7966 64.998 47.1571L65.0898 47.4053C64.9828 47.6272 64.8862 47.8165 64.7662 48.0317C65.0757 48.7154 67.5043 50.6288 68.4711 50.4579C68.5076 50.4516 68.8003 50.1908 68.8542 50.1421C69.5245 50.2393 69.2273 50.9028 69.3661 51.0992C69.6895 51.5575 71.0411 52.0991 71.5965 51.9604C71.8253 51.7652 71.8779 51.7034 72.0599 51.4633C72.3547 51.4792 72.3879 51.4887 72.6194 51.6711C72.7411 52.2157 72.3082 52.1985 72.46 52.7214C73.6559 53.2585 80.5432 55.9971 81.4606 55.8901C81.5201 55.4798 81.534 55.3656 81.6828 54.9706C82.0966 54.7085 82.2508 54.7458 82.7037 54.9963C82.9432 55.873 81.3615 56.167 84.5135 56.4177ZM85.8718 31.0659C86.4357 31.776 88.0256 32.3671 88.88 32.4829C88.2771 32.1112 86.515 31.17 85.8718 31.0659Z" fill="#413431"/>
<path d="M78.9179 101.473C79.167 101.589 79.5841 101.991 79.6289 102.261C79.8967 103.878 81.4577 106.984 81.5027 108.386C81.3864 108.791 81.0733 108.97 80.7357 109.23C79.359 108.576 78.0305 103.744 78.22 102.214C78.2663 101.839 78.6324 101.644 78.9179 101.473Z" fill="#413431"/>
<path d="M61.4708 40.2253C61.795 40.4419 62.1084 40.5931 62.2352 40.9535C62.1408 41.3757 62.1346 41.2734 61.7531 41.619C61.2637 41.646 61.1471 41.6151 60.9714 41.1917C61.027 40.7315 61.1821 40.5889 61.4708 40.2253Z" fill="#040303"/>
<path d="M88.8496 51.4709C89.233 51.5713 89.2916 51.7835 89.3549 52.1178C89.2514 52.5628 89.0706 52.6917 88.744 53.0131C88.4863 52.7244 88.204 52.4762 88.1121 52.1149C88.3142 51.7256 88.4274 51.7469 88.8496 51.4709Z" fill="#040303"/>
<path d="M74.0099 50.1141C74.3827 50.201 74.793 50.3811 74.9763 50.7334C74.9622 51.1673 74.9933 51.019 74.6636 51.3984C74.1902 51.5193 74.0644 51.509 73.7949 51.1396C73.7372 50.6758 73.8227 50.5411 74.0099 50.1141Z" fill="#040303"/>
<path d="M77.4827 51.4091C77.9678 51.5743 77.9181 51.4792 78.2052 51.8248C78.1525 52.3326 78.086 52.2791 77.756 52.7555L77.4017 52.6761C77.072 52.3629 77.1527 52.5141 77.0503 52.1099C77.1759 51.6236 77.1106 51.7836 77.4827 51.4091Z" fill="#040303"/>
<path d="M87.4462 54.6818C87.9147 54.8308 87.9341 54.9813 88.0054 55.4168C87.8783 55.8542 87.7966 55.8974 87.4427 56.1748C87.1509 55.9273 86.989 55.8246 86.835 55.4651C86.9631 55.0129 87.0448 55.0555 87.4462 54.6818Z" fill="#040303"/>
<path d="M79.322 42.6253C79.7384 42.7851 79.8205 42.9643 79.8473 43.3669C79.6883 43.7793 79.5659 43.8178 79.1852 44.0409C78.9076 43.8058 78.8022 43.7402 78.6487 43.3972C78.7908 42.9621 78.9134 42.9737 79.322 42.6253Z" fill="#040303"/>
<path d="M85.4904 50.3019C85.8403 50.3464 85.9015 50.5493 86.028 50.8209C85.9568 51.4003 86.0286 51.1898 85.666 51.6843C85.245 51.5522 85.037 51.5002 84.853 51.1086C84.9248 50.7405 85.1974 50.5673 85.4904 50.3019Z" fill="#040303"/>
<path d="M75.4543 46.8167C75.7653 46.9441 75.9714 47.1317 76.1811 47.3867C76.2567 47.8561 76.2721 47.6812 75.97 48.1457C75.4696 48.2626 75.3559 48.302 75.1313 47.8736C75.1331 47.4176 75.257 47.227 75.4543 46.8167Z" fill="#040303"/>
<path d="M66.8983 40.3762C67.2202 40.5303 67.4415 40.5868 67.5873 40.8991C67.4942 41.3807 67.48 41.272 67.0891 41.685C66.6879 41.6347 66.5046 41.4647 66.3616 41.1142C66.4955 40.6064 66.4439 40.7623 66.8983 40.3762Z" fill="#040303"/>
<path d="M62.6824 37.0594C63.0154 37.1799 63.3087 37.2448 63.5037 37.5413C63.4309 37.9944 63.4102 37.8994 63.0701 38.3009C62.6064 38.3224 62.5344 38.3047 62.3108 37.9438C62.3439 37.4952 62.4222 37.4209 62.6824 37.0594Z" fill="#040303"/>
<path d="M80.2785 44.8656C80.6358 44.8925 80.7117 45.1702 80.7758 45.4453C80.6724 45.9288 80.5814 46.0054 80.2603 46.3868C79.9921 46.1245 79.8342 46.0073 79.7092 45.6452C79.8415 45.1559 79.8519 45.2649 80.2785 44.8656Z" fill="#040303"/>
<path d="M78.6579 48.1308C79.1046 48.1399 79.1648 48.1592 79.398 48.4964C79.4242 48.9332 79.2403 49.197 79.0375 49.5874C78.8771 49.6002 78.8487 49.5739 78.6906 49.5287C78.3341 49.0597 78.4248 48.6232 78.6579 48.1308Z" fill="#040303"/>
<path d="M67.53 48.02C67.9546 48.1014 68.0991 48.1388 68.3521 48.4321C68.3438 48.8063 68.0307 49.0563 67.7655 49.3366L67.6965 49.4109L67.54 49.322C67.2128 48.7309 67.1636 48.5755 67.53 48.02Z" fill="#040303"/>
<path d="M92.4259 47.1846C92.8643 47.2673 92.9994 47.3983 93.1015 47.796C92.8942 48.2693 92.9375 48.1402 92.4773 48.4827C92.1296 48.4364 92.073 48.2911 91.9546 48.0177C92.0024 47.585 92.1265 47.5013 92.4259 47.1846Z" fill="#040303"/>
<path d="M90.0124 53.7272C90.401 54.0492 90.463 54.0017 90.6224 54.4136C90.45 54.7879 90.4405 54.7051 90.0288 54.9622C89.6146 54.8589 89.5183 54.8419 89.3525 54.4757C89.4279 54.1217 89.7237 53.9506 90.0124 53.7272Z" fill="#040303"/>
<path d="M83.2056 51.4453C83.6266 51.5012 83.6733 51.6434 83.8267 51.9945C83.8142 52.4243 83.7199 52.4957 83.4439 52.8235C82.9984 52.7098 82.9177 52.6046 82.7585 52.2134C82.818 51.7993 82.9191 51.7315 83.2056 51.4453Z" fill="#040303"/>
<path d="M70.0578 46.8558C70.2771 46.9692 70.5495 47.2562 70.6909 47.4566C70.6671 47.9238 70.6731 47.7851 70.2715 48.2023C69.9413 48.2668 69.7722 48.0469 69.6448 47.8046C69.6416 47.3312 69.7617 47.2268 70.0578 46.8558Z" fill="#040303"/>
<path d="M68.1353 42.628C68.4394 42.6144 68.7003 42.8426 68.7274 43.1458C68.7545 43.449 68.5382 43.7199 68.2364 43.7604C68.029 43.7883 67.823 43.7 67.7 43.5306C67.5771 43.3611 67.5571 43.1379 67.6481 42.9493C67.7389 42.7607 67.9261 42.6372 68.1353 42.628Z" fill="#040303"/>
<path d="M70.9117 49.1028C71.2301 49.268 71.5306 49.3822 71.7047 49.6964C71.6338 50.0807 71.633 49.9815 71.284 50.2976C70.8534 50.2473 70.6739 50.2275 70.4521 49.8704C70.472 49.5131 70.6609 49.3753 70.9117 49.1028Z" fill="#040303"/>
<path d="M84.0675 53.4412C84.4526 53.5957 84.4654 53.6902 84.62 54.0001C84.6264 54.4873 84.5606 54.5587 84.2928 54.9698C83.8302 54.8096 83.8838 54.824 83.6908 54.4781C83.6858 54.0203 83.8348 53.8368 84.0675 53.4412Z" fill="#040303"/>
<path d="M65.9657 38.1938C66.4166 38.2522 66.5143 38.3737 66.6682 38.7555C66.5417 39.27 66.6003 39.1054 66.2051 39.5108C65.8135 39.4603 65.8132 39.4521 65.6094 39.165C65.5903 38.7255 65.7306 38.568 65.9657 38.1938Z" fill="#040303"/>
<path d="M68.8072 44.8339C69.1785 44.8602 69.2377 44.8828 69.5851 45.0204L69.6633 45.2298C69.4662 45.5879 69.3292 45.7316 69.0649 46.0394L68.9687 46.148L68.7795 46.0769C68.4936 45.5677 68.5448 45.3 68.8072 44.8339Z" fill="#040303"/>
<path d="M79.9147 50.3968C80.2171 50.32 80.5243 50.5041 80.5991 50.8071C80.6739 51.1101 80.4877 51.4159 80.1842 51.4887C79.8837 51.5608 79.5813 51.3767 79.5072 51.0766C79.4332 50.7766 79.6151 50.4729 79.9147 50.3968Z" fill="#040303"/>
<path d="M95.7443 48.2652C96.1327 48.4237 96.1415 48.4949 96.303 48.8045C96.2944 49.2604 96.1917 49.3515 95.9226 49.7181C95.5431 49.6143 95.4887 49.5337 95.3291 49.2195C95.3415 48.7774 95.4887 48.6278 95.7443 48.2652Z" fill="#040303"/>
<path d="M82.2787 49.2531C82.5733 49.3505 82.6553 49.5143 82.7684 49.7616C82.7076 50.1604 82.5166 50.2798 82.2177 50.5427C81.9182 50.3548 81.7867 50.2982 81.6047 49.9835C81.7547 49.5417 81.8375 49.5941 82.2787 49.2531Z" fill="#040303"/>
<path d="M92.1204 52.7163C92.4442 52.7557 92.546 52.9258 92.628 53.1872C92.5289 53.6049 92.436 53.6517 92.104 53.9192C91.8001 53.7235 91.5319 53.6093 91.4089 53.288C91.6294 52.9037 91.6744 52.9689 92.1204 52.7163Z" fill="#040303"/>
<path d="M74.7033 44.8617C75.0871 44.9092 75.0945 45.1263 75.1861 45.4366C75.1198 45.9469 75.0769 46.0014 74.7456 46.3998C74.4804 46.1077 74.4393 46.0548 74.2461 45.7127C74.2915 45.2397 74.3556 45.3017 74.7033 44.8617Z" fill="#040303"/>
<path d="M93.1902 49.4957C93.6364 49.5073 93.8125 49.4922 94.0468 49.8528C94.0022 50.1842 93.7517 50.3371 93.4936 50.5505C93.1773 50.4186 92.9072 50.3443 92.7246 50.0525C92.8145 49.6822 92.8128 49.7788 93.1902 49.4957Z" fill="#040303"/>
<path d="M64.5336 41.6358C64.7062 41.5214 64.9284 41.5137 65.1083 41.6158C65.2884 41.7179 65.3958 41.9125 65.3863 42.1193C65.3767 42.326 65.2517 42.5099 65.063 42.5949C64.802 42.7125 64.4945 42.6101 64.3561 42.3594C64.2177 42.1088 64.295 41.7939 64.5336 41.6358Z" fill="#040303"/>
<path d="M63.5195 39.3538C63.7058 39.2867 63.9138 39.3248 64.0641 39.4539C64.2144 39.5828 64.2839 39.7826 64.2458 39.977C64.2078 40.1715 64.0682 40.3304 63.8803 40.3932C63.5945 40.4888 63.2849 40.3367 63.1861 40.0519C63.0872 39.7671 63.2359 39.4559 63.5195 39.3538Z" fill="#040303"/>
<path d="M76.8725 43.6544C77.1836 43.8721 77.2506 43.9081 77.426 44.2576C77.3884 44.7375 77.3941 44.6034 77.0816 45.0372C76.6961 45.0102 76.5977 44.8977 76.4304 44.6063C76.4403 44.1753 76.6155 44.0037 76.8725 43.6544Z" fill="#040303"/>
<path d="M73.1711 48.1417C73.6498 48.251 73.6101 48.1687 73.9215 48.4653C73.9752 48.8206 73.7156 49.1804 73.5306 49.5215C72.8448 49.2754 72.8834 48.6653 73.1711 48.1417Z" fill="#040303"/>
<path d="M65.7173 43.4531C65.9979 43.678 66.0971 43.8624 66.1677 44.1987C66.1255 44.6504 66.0227 44.7208 65.7141 45.0514C65.3317 44.6573 65.4099 44.8329 65.2759 44.3133C65.3502 43.88 65.4464 43.7956 65.7173 43.4531Z" fill="#040303"/>
<path d="M84.3105 48.2575C84.7378 48.3307 84.7677 48.3383 85.0207 48.6105C85.1103 48.98 84.9379 49.273 84.7891 49.6299C84.3857 49.5473 84.3676 49.4547 84.1801 49.1834C84.1138 48.7375 84.1502 48.6693 84.3105 48.2575Z" fill="#040303"/>
<path d="M66.6837 45.9056C66.9899 45.9578 67.2262 46.1293 67.3811 46.3932C67.3209 46.846 67.3345 46.7136 66.9163 47.091C66.6203 46.95 66.438 46.8951 66.2573 46.6148C66.3052 46.1992 66.3425 46.2794 66.6837 45.9056Z" fill="#040303"/>
<path d="M81.421 46.9991C82.048 47.3494 81.8124 48.0076 81.3985 48.4142C80.9824 48.164 80.9605 48.179 80.8083 47.7955C80.8589 47.4438 81.153 47.2416 81.421 46.9991Z" fill="#040303"/>
<path d="M91.2443 50.3885C91.6154 50.5717 91.6418 50.6934 91.7355 51.0496C91.5559 51.5551 91.6488 51.3883 91.2103 51.7412C90.8083 51.5908 90.835 51.5929 90.7112 51.2265C90.8185 50.7725 90.913 50.7107 91.2443 50.3885Z" fill="#040303"/>
<path d="M94.2979 46.3251C94.6849 46.3285 95.0831 46.3108 95.3843 46.5527C95.3999 46.8897 95.4184 46.7643 95.1254 47.0963C94.6629 47.2261 94.5347 47.2412 94.1508 46.9939C94.0972 46.5787 94.0768 46.7499 94.2979 46.3251Z" fill="#040303"/>
<path d="M80.8803 52.548C81.1868 52.6389 81.2847 52.7592 81.4467 53.0123C81.4125 53.4703 81.4363 53.3246 81.0593 53.7215C80.6097 53.5368 80.6153 53.6158 80.3528 53.279C80.4591 52.8275 80.4818 52.9221 80.8803 52.548Z" fill="#040303"/>
<path d="M86.7141 52.6614C86.9884 52.8295 87.0283 52.8519 87.1845 53.1307C87.0455 53.5441 86.9801 53.4897 86.577 53.8119C86.2445 53.6966 86.2138 53.644 86.0859 53.3647C86.1657 53.0349 86.4441 52.8712 86.7141 52.6614Z" fill="#040303"/>
<path d="M77.8942 40.4178C78.1999 40.8161 78.2668 40.772 78.804 40.7789C78.7228 40.932 78.6501 41.2118 78.5965 41.3866C78.2635 41.6775 78.4221 41.6073 78.0013 41.6695L77.7976 41.4525C77.6736 41.0519 77.7784 40.823 77.8942 40.4178Z" fill="#040303"/>
<path d="M85.8718 31.0659C86.515 31.17 88.2771 32.1112 88.88 32.4829C88.0256 32.3671 86.4357 31.776 85.8718 31.0659Z" fill="#5A5153" fill-opacity="0.290196"/>
<path d="M25.4466 83.5302L25.7313 83.5681C25.8683 84.0513 24.2815 85.4443 23.8054 85.9402C21.1599 88.6475 19.2076 91.5802 18.1576 95.2406C17.6552 96.9918 18.6604 100.516 15.8883 99.7114C15.6397 99.4499 15.4628 99.2181 15.3862 98.8606C15.2167 98.0705 15.298 97.0377 15.3687 96.242C15.7902 91.4961 19.2109 87.425 23.0738 84.9064C23.8639 84.3913 24.5563 83.8758 25.4466 83.5302Z" fill="#E01C1B"/>
<path d="M24.8132 79.6625C25.0195 79.6901 24.9213 79.6687 25.1165 79.8353C24.9876 80.1596 24.6214 80.4202 24.3214 80.6116C20.3612 83.139 17.7322 85.9783 15.6732 90.1729C14.7983 90.6419 14.6229 90.8728 13.7181 90.6284C12.4076 89.2923 13.3561 88.1794 14.1581 86.8455C16.4786 82.9855 20.5411 80.7262 24.8132 79.6625Z" fill="#E01C1B"/>
</svg>
